<svg xmlns="http://www.w3.org/2000/svg" id="Capa_1" data-name="Capa 1" viewBox="0 0 1185.94 646.71"><title>connectchilepanguipulliinternet2</title><polyline points="304.56 419.77 443.76 419.77 571.64 296.75 689.8 410.06 727.03 411.67 728.65 343.69 628.29 345.31" style="fill:none;stroke:#1d1d1b;stroke-miterlimit:10"></polyline><polyline points="304.52 417.81 304.52 412.25 368.45 349.97 514.88 347.85" style="fill:none;stroke:#1d1d1b;stroke-miterlimit:10"></polyline><rect x="368.86" y="460.15" width="79.38" height="59.2" style="fill:none;stroke:#1d1d1b;stroke-miterlimit:10"></rect><polyline points="293.51 562.4 387.69 524.73 485.91 565.09 485.91 647.16" style="fill:none;stroke:#1d1d1b;stroke-miterlimit:10"></polyline><polyline points="443.48 645.05 444.76 560.58 340.95 561.22 339.01 645.05" style="fill:none;stroke:#1d1d1b;stroke-miterlimit:10"></polyline><polyline points="329.34 422.58 325.47 545.75 329.28 415.66" style="fill:none;stroke:#1d1d1b;stroke-miterlimit:10"></polyline><polyline points="488.61 527.05 490.55 443.86 714.95 439.99 713.66 410.33" style="fill:none;stroke:#1d1d1b;stroke-miterlimit:10"></polyline><line x1="538.26" y1="528.98" x2="539.55" y2="443.86" style="fill:none;stroke:#1d1d1b;stroke-miterlimit:10"></line><line x1="545.36" y1="443.86" x2="544.07" y2="528.98" style="fill:none;stroke:#1d1d1b;stroke-miterlimit:10"></line><polyline points="458.31 552.84 458.31 528.98 749.77 524.47 762.66 601.2" style="fill:none;stroke:#1d1d1b;stroke-miterlimit:10"></polyline><polyline points="487.32 572.83 747.19 570.89 746.54 524.47" style="fill:none;stroke:#1d1d1b;stroke-miterlimit:10"></polyline><line x1="464.95" y1="530.1" x2="464.95" y2="556.09" style="fill:none;stroke:#1d1d1b;stroke-miterlimit:10"></line><line x1="470.25" y1="529.65" x2="470.69" y2="558.33" style="fill:none;stroke:#1d1d1b;stroke-miterlimit:10"></line><line x1="475.91" y1="529.97" x2="475.49" y2="559.97" style="fill:none;stroke:#1d1d1b;stroke-miterlimit:10"></line><line x1="485.44" y1="529.69" x2="485.44" y2="564.52" style="fill:none;stroke:#1d1d1b;stroke-miterlimit:10"></line><line x1="490.3" y1="529.42" x2="490.43" y2="571.84" style="fill:none;stroke:#1d1d1b;stroke-miterlimit:10"></line><line x1="496.56" y1="529.14" x2="496.56" y2="572.37" style="fill:none;stroke:#1d1d1b;stroke-miterlimit:10"></line><line x1="502" y1="529" x2="502" y2="572.65" style="fill:none;stroke:#1d1d1b;stroke-miterlimit:10"></line><line x1="507.44" y1="528.59" x2="507.44" y2="572.09" style="fill:none;stroke:#1d1d1b;stroke-miterlimit:10"></line><line x1="512.99" y1="572.23" x2="512.99" y2="528.86" style="fill:none;stroke:#1d1d1b;stroke-miterlimit:10"></line><line x1="518.15" y1="528.86" x2="518.15" y2="572.37" style="fill:none;stroke:#1d1d1b;stroke-miterlimit:10"></line><line x1="522.98" y1="528.31" x2="522.98" y2="572.37" style="fill:none;stroke:#1d1d1b;stroke-miterlimit:10"></line><line x1="480.24" y1="529.98" x2="480.1" y2="562.29" style="fill:none;stroke:#1d1d1b;stroke-miterlimit:10"></line><line x1="591.12" y1="442.79" x2="591.12" y2="526.13" style="fill:none;stroke:#1d1d1b;stroke-miterlimit:10"></line><line x1="597.71" y1="442.82" x2="597.71" y2="526.8" style="fill:none;stroke:#1d1d1b;stroke-miterlimit:10"></line><line x1="646.27" y1="442" x2="646.27" y2="525.98" style="fill:none;stroke:#1d1d1b;stroke-miterlimit:10"></line><line x1="652.03" y1="441.21" x2="652.03" y2="524.33" style="fill:none;stroke:#1d1d1b;stroke-miterlimit:10"></line><line x1="706.35" y1="440.38" x2="706.35" y2="524.33" style="fill:none;stroke:#1d1d1b;stroke-miterlimit:10"></line><line x1="712.11" y1="441.21" x2="712.11" y2="522.69" style="fill:none;stroke:#1d1d1b;stroke-miterlimit:10"></line><polygon points="615.82 409.93 531.04 409.93 531.04 349.86 557.38 349.86 615.82 349.86 615.82 409.93" style="fill:none;stroke:#1d1d1b;stroke-miterlimit:10"></polygon><line x1="556.56" y1="408.29" x2="556.56" y2="349.85" style="fill:none;stroke:#1d1d1b;stroke-miterlimit:10"></line><line x1="591.12" y1="350.68" x2="591.12" y2="409.93" style="fill:none;stroke:#1d1d1b;stroke-miterlimit:10"></line><line x1="555.74" y1="366.31" x2="589.48" y2="366.31" style="fill:none;stroke:#1d1d1b;stroke-miterlimit:10"></line><line x1="577.84" y1="463.47" x2="589.71" y2="463.47" style="fill:none;stroke:#1d1d1b;stroke-miterlimit:10"></line><line x1="599.15" y1="463.2" x2="645.29" y2="463.2" style="fill:none;stroke:#1d1d1b;stroke-miterlimit:10"></line><polyline points="653.11 462.93 679.82 462.93 680 520.93 653.11 521.2" style="fill:none;stroke:#1d1d1b;stroke-miterlimit:10"></polyline><line x1="644.75" y1="520.66" x2="598.34" y2="520.93" style="fill:none;stroke:#1d1d1b;stroke-miterlimit:10"></line><polyline points="589.44 520.93 578.92 520.93 578.92 463.2" style="fill:none;stroke:#1d1d1b;stroke-miterlimit:10"></polyline><line x1="612.64" y1="520.66" x2="612.91" y2="463.2" style="fill:none;stroke:#1d1d1b;stroke-miterlimit:10"></line><polyline points="536.99 526.8 536.62 465.07 534.99 465.88" style="fill:none;stroke:#1d1d1b;stroke-miterlimit:10"></polyline><polyline points="513.04 526.32 513.41 465.67 536.62 465.07" style="fill:none;stroke:#1d1d1b;stroke-miterlimit:10"></polyline><line x1="528.17" y1="529.14" x2="528.17" y2="572.37" style="fill:none;stroke:#1d1d1b;stroke-miterlimit:10"></line><line x1="533.61" y1="529" x2="533.61" y2="572.65" style="fill:none;stroke:#1d1d1b;stroke-miterlimit:10"></line><line x1="539.05" y1="528.59" x2="539.05" y2="572.09" style="fill:none;stroke:#1d1d1b;stroke-miterlimit:10"></line><line x1="544.6" y1="572.23" x2="544.6" y2="528.86" style="fill:none;stroke:#1d1d1b;stroke-miterlimit:10"></line><line x1="549.76" y1="528.86" x2="549.76" y2="572.37" style="fill:none;stroke:#1d1d1b;stroke-miterlimit:10"></line><line x1="554.59" y1="528.31" x2="554.59" y2="572.37" style="fill:none;stroke:#1d1d1b;stroke-miterlimit:10"></line><line x1="559.78" y1="529.14" x2="559.78" y2="572.37" style="fill:none;stroke:#1d1d1b;stroke-miterlimit:10"></line><line x1="565.22" y1="529" x2="565.22" y2="572.65" style="fill:none;stroke:#1d1d1b;stroke-miterlimit:10"></line><line x1="570.66" y1="528.59" x2="570.66" y2="572.09" style="fill:none;stroke:#1d1d1b;stroke-miterlimit:10"></line><line x1="576.21" y1="572.23" x2="576.21" y2="528.86" style="fill:none;stroke:#1d1d1b;stroke-miterlimit:10"></line><line x1="581.37" y1="528.86" x2="581.37" y2="572.37" style="fill:none;stroke:#1d1d1b;stroke-miterlimit:10"></line><line x1="586.2" y1="528.31" x2="586.2" y2="572.37" style="fill:none;stroke:#1d1d1b;stroke-miterlimit:10"></line><line x1="591.39" y1="529.14" x2="591.39" y2="572.37" style="fill:none;stroke:#1d1d1b;stroke-miterlimit:10"></line><line x1="596.83" y1="529" x2="596.83" y2="572.65" style="fill:none;stroke:#1d1d1b;stroke-miterlimit:10"></line><line x1="602.26" y1="528.59" x2="602.26" y2="572.09" style="fill:none;stroke:#1d1d1b;stroke-miterlimit:10"></line><line x1="607.81" y1="572.23" x2="607.81" y2="528.86" style="fill:none;stroke:#1d1d1b;stroke-miterlimit:10"></line><line x1="612.98" y1="528.86" x2="612.98" y2="572.37" style="fill:none;stroke:#1d1d1b;stroke-miterlimit:10"></line><line x1="617.81" y1="528.31" x2="617.81" y2="572.37" style="fill:none;stroke:#1d1d1b;stroke-miterlimit:10"></line><line x1="623" y1="528.29" x2="623" y2="571.52" style="fill:none;stroke:#1d1d1b;stroke-miterlimit:10"></line><line x1="628.44" y1="528.15" x2="628.44" y2="571.79" style="fill:none;stroke:#1d1d1b;stroke-miterlimit:10"></line><line x1="633.87" y1="527.73" x2="633.87" y2="571.24" style="fill:none;stroke:#1d1d1b;stroke-miterlimit:10"></line><line x1="639.42" y1="571.38" x2="639.42" y2="528.01" style="fill:none;stroke:#1d1d1b;stroke-miterlimit:10"></line><line x1="644.58" y1="527.16" x2="644.58" y2="570.66" style="fill:none;stroke:#1d1d1b;stroke-miterlimit:10"></line><line x1="649.42" y1="528.31" x2="649.42" y2="572.37" style="fill:none;stroke:#1d1d1b;stroke-miterlimit:10"></line><line x1="654.61" y1="529.14" x2="654.61" y2="572.37" style="fill:none;stroke:#1d1d1b;stroke-miterlimit:10"></line><line x1="660.04" y1="528.15" x2="660.04" y2="571.79" style="fill:none;stroke:#1d1d1b;stroke-miterlimit:10"></line><line x1="665.48" y1="527.73" x2="665.48" y2="571.24" style="fill:none;stroke:#1d1d1b;stroke-miterlimit:10"></line><line x1="671.03" y1="571.38" x2="671.03" y2="528.01" style="fill:none;stroke:#1d1d1b;stroke-miterlimit:10"></line><line x1="676.19" y1="528.01" x2="676.19" y2="571.52" style="fill:none;stroke:#1d1d1b;stroke-miterlimit:10"></line><line x1="681.03" y1="527.46" x2="681.03" y2="571.52" style="fill:none;stroke:#1d1d1b;stroke-miterlimit:10"></line><line x1="686.22" y1="527.43" x2="686.22" y2="570.66" style="fill:none;stroke:#1d1d1b;stroke-miterlimit:10"></line><line x1="691.65" y1="527.29" x2="691.65" y2="570.94" style="fill:none;stroke:#1d1d1b;stroke-miterlimit:10"></line><line x1="697.09" y1="526.88" x2="697.09" y2="570.39" style="fill:none;stroke:#1d1d1b;stroke-miterlimit:10"></line><line x1="702.64" y1="569.67" x2="702.64" y2="526.3" style="fill:none;stroke:#1d1d1b;stroke-miterlimit:10"></line><line x1="707.8" y1="526.3" x2="707.8" y2="569.81" style="fill:none;stroke:#1d1d1b;stroke-miterlimit:10"></line><line x1="712.64" y1="526.6" x2="712.64" y2="570.66" style="fill:none;stroke:#1d1d1b;stroke-miterlimit:10"></line><line x1="717.82" y1="526.58" x2="717.82" y2="569.81" style="fill:none;stroke:#1d1d1b;stroke-miterlimit:10"></line><line x1="723.26" y1="526.44" x2="723.26" y2="570.08" style="fill:none;stroke:#1d1d1b;stroke-miterlimit:10"></line><line x1="728.7" y1="526.03" x2="728.7" y2="569.53" style="fill:none;stroke:#1d1d1b;stroke-miterlimit:10"></line><line x1="734.25" y1="569.67" x2="734.25" y2="526.3" style="fill:none;stroke:#1d1d1b;stroke-miterlimit:10"></line><line x1="739.41" y1="526.3" x2="739.41" y2="569.81" style="fill:none;stroke:#1d1d1b;stroke-miterlimit:10"></line><line x1="744.25" y1="525.75" x2="744.25" y2="569.81" style="fill:none;stroke:#1d1d1b;stroke-miterlimit:10"></line><polyline points="730.28 354.38 917.44 351.76 1007.97 336.97 1035.83 343.06" style="fill:none;stroke:#1d1d1b;stroke-miterlimit:10"></polyline><polyline points="1186.43 280.38 953.13 376.14 913.96 399.64" style="fill:none;stroke:#1d1d1b;stroke-miterlimit:10"></polyline><polyline points="969.67 396.16 1032.35 352.63 1189.91 380.49" style="fill:none;stroke:#1d1d1b;stroke-miterlimit:10"></polyline><polyline points="729.41 404.87 948.78 401.38 950.52 435.33 715.48 437.08" style="fill:none;stroke:#1d1d1b;stroke-miterlimit:10"></polyline><polyline points="712.87 445.78 950.49 444.04 950.52 435.33" style="fill:none;stroke:#1d1d1b;stroke-miterlimit:10"></polyline><polyline points="713.62 466.24 720.53 466.24 721.06 522.59" style="fill:none;stroke:#1d1d1b;stroke-miterlimit:10"></polyline><polyline points="729.04 523.38 727.97 466.24 815.95 465.18 819.14 563.52" style="fill:none;stroke:#1d1d1b;stroke-miterlimit:10"></polyline><line x1="824.99" y1="464.38" x2="827.11" y2="526.57" style="fill:none;stroke:#1d1d1b;stroke-miterlimit:10"></line><polyline points="917.75 496.27 916.69 463.85 823.92 465.71" style="fill:none;stroke:#1d1d1b;stroke-miterlimit:10"></polyline><polyline points="926.79 491.49 926.25 463.31 944.6 463.05 944.33 449.76 713.09 452.42" style="fill:none;stroke:#1d1d1b;stroke-miterlimit:10"></polyline><line x1="720.64" y1="413.3" x2="720.64" y2="435.69" style="fill:none;stroke:#1d1d1b;stroke-miterlimit:10"></line><line x1="727.03" y1="411.67" x2="727.12" y2="435.69" style="fill:none;stroke:#1d1d1b;stroke-miterlimit:10"></line><line x1="734.08" y1="405.79" x2="734.74" y2="436.33" style="fill:none;stroke:#1d1d1b;stroke-miterlimit:10"></line><line x1="741.15" y1="405.46" x2="741.69" y2="436.33" style="fill:none;stroke:#1d1d1b;stroke-miterlimit:10"></line><line x1="747.75" y1="405.79" x2="748.4" y2="436.33" style="fill:none;stroke:#1d1d1b;stroke-miterlimit:10"></line><line x1="754.82" y1="405.46" x2="755.36" y2="436.33" style="fill:none;stroke:#1d1d1b;stroke-miterlimit:10"></line><polyline points="732.21 425.48 733.75 386.93 763.05 385.39 762.93 435.48 762.28 404.93" style="fill:none;stroke:#1d1d1b;stroke-miterlimit:10"></polyline><line x1="769.34" y1="404.61" x2="769.89" y2="435.48" style="fill:none;stroke:#1d1d1b;stroke-miterlimit:10"></line><line x1="776.8" y1="404.93" x2="777.45" y2="435.48" style="fill:none;stroke:#1d1d1b;stroke-miterlimit:10"></line><line x1="783.86" y1="404.61" x2="784.41" y2="435.48" style="fill:none;stroke:#1d1d1b;stroke-miterlimit:10"></line><line x1="791.32" y1="404.93" x2="791.97" y2="435.48" style="fill:none;stroke:#1d1d1b;stroke-miterlimit:10"></line><line x1="798.39" y1="404.61" x2="798.93" y2="435.48" style="fill:none;stroke:#1d1d1b;stroke-miterlimit:10"></line><line x1="805.84" y1="404.93" x2="806.5" y2="435.48" style="fill:none;stroke:#1d1d1b;stroke-miterlimit:10"></line><line x1="812.91" y1="404.61" x2="813.45" y2="435.48" style="fill:none;stroke:#1d1d1b;stroke-miterlimit:10"></line><line x1="820.37" y1="404.93" x2="821.02" y2="435.48" style="fill:none;stroke:#1d1d1b;stroke-miterlimit:10"></line><line x1="828.29" y1="404.61" x2="828.83" y2="435.48" style="fill:none;stroke:#1d1d1b;stroke-miterlimit:10"></line><line x1="835.75" y1="403.72" x2="836.4" y2="434.99" style="fill:none;stroke:#1d1d1b;stroke-miterlimit:10"></line><line x1="842.81" y1="403.38" x2="843.35" y2="434.99" style="fill:none;stroke:#1d1d1b;stroke-miterlimit:10"></line><line x1="850.27" y1="403.72" x2="850.92" y2="434.99" style="fill:none;stroke:#1d1d1b;stroke-miterlimit:10"></line><line x1="857.33" y1="403.38" x2="857.88" y2="434.99" style="fill:none;stroke:#1d1d1b;stroke-miterlimit:10"></line><line x1="864.79" y1="403.72" x2="865.44" y2="434.99" style="fill:none;stroke:#1d1d1b;stroke-miterlimit:10"></line><line x1="872.48" y1="403.72" x2="873.13" y2="434.99" style="fill:none;stroke:#1d1d1b;stroke-miterlimit:10"></line><line x1="879.55" y1="403.38" x2="880.09" y2="434.99" style="fill:none;stroke:#1d1d1b;stroke-miterlimit:10"></line><line x1="887" y1="403.72" x2="887.66" y2="434.99" style="fill:none;stroke:#1d1d1b;stroke-miterlimit:10"></line><line x1="894.07" y1="403.38" x2="894.61" y2="434.99" style="fill:none;stroke:#1d1d1b;stroke-miterlimit:10"></line><line x1="901.53" y1="403.72" x2="902.18" y2="434.99" style="fill:none;stroke:#1d1d1b;stroke-miterlimit:10"></line><line x1="909.21" y1="402.86" x2="909.87" y2="434.14" style="fill:none;stroke:#1d1d1b;stroke-miterlimit:10"></line><line x1="916.28" y1="402.53" x2="916.82" y2="434.14" style="fill:none;stroke:#1d1d1b;stroke-miterlimit:10"></line><line x1="923.74" y1="402.86" x2="924.39" y2="434.14" style="fill:none;stroke:#1d1d1b;stroke-miterlimit:10"></line><line x1="930.8" y1="402.53" x2="931.35" y2="434.14" style="fill:none;stroke:#1d1d1b;stroke-miterlimit:10"></line><line x1="937.41" y1="402.86" x2="938.06" y2="434.14" style="fill:none;stroke:#1d1d1b;stroke-miterlimit:10"></line><line x1="944.47" y1="402.53" x2="945.02" y2="434.14" style="fill:none;stroke:#1d1d1b;stroke-miterlimit:10"></line><polyline points="1114.79 444.95 1024.85 446.69 858.89 525.61 817.12 526.19 837.43 586.53 837.43 637.6" style="fill:none;stroke:#1d1d1b;stroke-miterlimit:10"></polyline><polyline points="1113.76 451.44 1023.87 452.85 857.95 531.72 823.47 531.43 838.16 576.38" style="fill:none;stroke:#1d1d1b;stroke-miterlimit:10"></polyline><polyline points="1112.8 484.61 1025.67 486.41 858.2 567.22 835.63 565.86" style="fill:none;stroke:#1d1d1b;stroke-miterlimit:10"></polyline><polyline points="938.1 398.84 953.46 390.36 964.28 384.39 1018.45 361.37" style="fill:none;stroke:#1d1d1b;stroke-miterlimit:10"></polyline><line x1="953.46" y1="390.36" x2="990.01" y2="416.44" style="fill:none;stroke:#1d1d1b;stroke-miterlimit:10"></line><line x1="988.66" y1="402" x2="992.27" y2="459.33" style="fill:none;stroke:#1d1d1b;stroke-miterlimit:10"></line><polyline points="980.08 404.25 1034.7 364.98 1161.55 388.45" style="fill:none;stroke:#1d1d1b;stroke-miterlimit:10"></polyline><line x1="998.59" y1="394.32" x2="1004.01" y2="494.54" style="fill:none;stroke:#1d1d1b;stroke-miterlimit:10"></line><polygon points="1041.47 397.48 1041.47 403.8 1113.25 393.42 1112.8 388.9 1072.62 383.04 1041.47 397.48" style="fill:none;stroke:#1d1d1b;stroke-miterlimit:10"></polygon><polyline points="1043.28 484.61 1038.31 414.18 1105.58 406.51 1110.99 482.8" style="fill:none;stroke:#1d1d1b;stroke-miterlimit:10"></polyline><ellipse cx="1057.32" cy="434.4" rx="7.67" ry="12.64" style="fill:none;stroke:#1d1d1b;stroke-miterlimit:10"></ellipse><ellipse cx="1091.49" cy="430.98" rx="7.67" ry="12.64" style="fill:none;stroke:#1d1d1b;stroke-miterlimit:10"></ellipse><polygon points="972.41 439.01 972.86 449.39 988.21 443.53 987.3 432.24 972.41 439.01" style="fill:none;stroke:#1d1d1b;stroke-miterlimit:10"></polygon><polygon points="809.45 428.63 808.54 388 881.22 385.75 882.12 436.75 808.99 438.56 809.45 428.63" style="fill:none;stroke:#1d1d1b;stroke-miterlimit:10"></polygon><line x1="881.22" y1="405.61" x2="808.54" y2="406.51" style="fill:none;stroke:#1d1d1b;stroke-miterlimit:10"></line><line x1="835.18" y1="387.55" x2="835.63" y2="405.61" style="fill:none;stroke:#1d1d1b;stroke-miterlimit:10"></line><line x1="858.65" y1="387.1" x2="859.1" y2="405.61" style="fill:none;stroke:#1d1d1b;stroke-miterlimit:10"></line><line x1="728.86" y1="363.88" x2="926.92" y2="360.81" style="fill:none;stroke:#1d1d1b;stroke-miterlimit:10"></line><polyline points="929.99 351.6 932.29 386.91 924.62 390.75 916.94 394.59 915.41 374.63 926.15 369.26 926.92 385.38" style="fill:none;stroke:#1d1d1b;stroke-miterlimit:10"></polyline><polyline points="1002.92 396.89 1028.25 387.68 1032.86 484.41" style="fill:none;stroke:#1d1d1b;stroke-miterlimit:10"></polyline><polyline points="728.09 477.5 804.86 476.73 805.63 549.66 755.73 550.43" style="fill:none;stroke:#1d1d1b;stroke-miterlimit:10"></polyline><polyline points="837.1 524.33 836.34 476.73 863.2 475.96 866.27 475.96 866.27 519.72" style="fill:none;stroke:#1d1d1b;stroke-miterlimit:10"></polyline><line x1="420.79" y1="459.09" x2="419.25" y2="516.05" style="fill:none;stroke:#1d1d1b;stroke-miterlimit:10"></line><line x1="396.15" y1="462.17" x2="394.61" y2="514.51" style="fill:none;stroke:#1d1d1b;stroke-miterlimit:10"></line><polyline points="729.58 483.36 747.5 483.36 748.58 521.73" style="fill:none;stroke:#1d1d1b;stroke-miterlimit:10"></polyline><polygon points="753.96 539.65 753.93 538.22 752.88 482.65 774.75 482.65 775.47 538.94 753.96 539.65" style="fill:none;stroke:#1d1d1b;stroke-miterlimit:10"></polygon><polyline points="804.29 538.22 781.92 538.22 781.2 482.65 803.79 483.01" style="fill:none;stroke:#1d1d1b;stroke-miterlimit:10"></polyline><line x1="753.6" y1="544.45" x2="804.29" y2="543.6" style="fill:none;stroke:#1d1d1b;stroke-miterlimit:10"></line><line x1="753.24" y1="489.1" x2="773.67" y2="489.1" style="fill:none;stroke:#1d1d1b;stroke-miterlimit:10"></line><line x1="753.24" y1="497.35" x2="774.03" y2="497.35" style="fill:none;stroke:#1d1d1b;stroke-miterlimit:10"></line><line x1="753.6" y1="504.16" x2="774.39" y2="504.16" style="fill:none;stroke:#1d1d1b;stroke-miterlimit:10"></line><line x1="752.88" y1="512.41" x2="774.75" y2="512.41" style="fill:none;stroke:#1d1d1b;stroke-miterlimit:10"></line><line x1="753.96" y1="520.29" x2="774.53" y2="520.29" style="fill:none;stroke:#1d1d1b;stroke-miterlimit:10"></line><line x1="754.31" y1="527.46" x2="774.39" y2="527.46" style="fill:none;stroke:#1d1d1b;stroke-miterlimit:10"></line><line x1="754.67" y1="533.56" x2="774.39" y2="533.56" style="fill:none;stroke:#1d1d1b;stroke-miterlimit:10"></line><line x1="782.43" y1="489.1" x2="804.26" y2="489.1" style="fill:none;stroke:#1d1d1b;stroke-miterlimit:10"></line><line x1="782.43" y1="497.35" x2="804.64" y2="497.35" style="fill:none;stroke:#1d1d1b;stroke-miterlimit:10"></line><line x1="782.18" y1="504.16" x2="803.88" y2="504.16" style="fill:none;stroke:#1d1d1b;stroke-miterlimit:10"></line><line x1="782.78" y1="512.41" x2="804.65" y2="512.41" style="fill:none;stroke:#1d1d1b;stroke-miterlimit:10"></line><line x1="782.7" y1="519" x2="804.02" y2="519" style="fill:none;stroke:#1d1d1b;stroke-miterlimit:10"></line><line x1="782.7" y1="527.25" x2="804.39" y2="527.25" style="fill:none;stroke:#1d1d1b;stroke-miterlimit:10"></line><line x1="782.64" y1="534.06" x2="804.29" y2="534.06" style="fill:none;stroke:#1d1d1b;stroke-miterlimit:10"></line><polyline points="1136.01 316.17 1085.29 338.3 1087.45 361.5" style="fill:none;stroke:#1d1d1b;stroke-miterlimit:10"></polyline><polyline points="1039.53 519.59 1039.53 619.44 839.02 619.44" style="fill:none;stroke:#1d1d1b;stroke-miterlimit:10"></polyline><polyline points="858.2 567.22 907.76 567.22 907.76 553.96 1037.08 553.96 1035.44 522.04 889.76 550.69" style="fill:none;stroke:#1d1d1b;stroke-miterlimit:10"></polyline><polygon points="1058.35 521.23 1061.63 632.53 1185.21 630.89 1180.3 520.41 1058.35 521.23" style="fill:none;stroke:#1d1d1b;stroke-miterlimit:10"></polygon><line x1="758.89" y1="351.67" x2="759.23" y2="313.92" style="fill:none;stroke:#1d1d1b;stroke-miterlimit:10"></line><line x1="758.89" y1="301.9" x2="758.2" y2="253.86" style="fill:none;stroke:#1d1d1b;stroke-miterlimit:10"></line><line x1="766.44" y1="230.87" x2="767.47" y2="283.03" style="fill:none;stroke:#1d1d1b;stroke-miterlimit:10"></line><line x1="767.81" y1="299.16" x2="768.15" y2="351.32" style="fill:none;stroke:#1d1d1b;stroke-miterlimit:10"></line><line x1="763.35" y1="351.67" x2="763.01" y2="314.6" style="fill:none;stroke:#1d1d1b;stroke-miterlimit:10"></line><line x1="762.66" y1="301.22" x2="762.32" y2="295.38" style="fill:none;stroke:#1d1d1b;stroke-miterlimit:10"></line><polyline points="762.32 285.09 761.63 231.21 760.26 228.81 756.14 228.81 756.83 253.86 760.61 253.51" style="fill:none;stroke:#1d1d1b;stroke-miterlimit:10"></polyline><ellipse cx="768.68" cy="291.43" rx="8.41" ry="8.24" style="fill:none;stroke:#1d1d1b;stroke-miterlimit:10"></ellipse><ellipse cx="775.69" cy="272.21" rx="4.63" ry="4.98" style="fill:none;stroke:#1d1d1b;stroke-miterlimit:10"></ellipse><ellipse cx="775.19" cy="260.38" rx="6.18" ry="5.83" style="fill:none;stroke:#1d1d1b;stroke-miterlimit:10"></ellipse><line x1="758.2" y1="258.66" x2="769.18" y2="258.32" style="fill:none;stroke:#1d1d1b;stroke-miterlimit:10"></line><line x1="775.69" y1="277.19" x2="757.86" y2="277.88" style="fill:none;stroke:#1d1d1b;stroke-miterlimit:10"></line><polyline points="754.08 302.93 754.08 313.57 765.41 313.23 765.07 302.25 752.71 301.9" style="fill:none;stroke:#1d1d1b;stroke-miterlimit:10"></polyline><polyline points="762.32 227.43 761.29 199.29 737.95 217.14 731.43 232.58 739.67 243.91 748.25 234.3 754.77 231.55" style="fill:none;stroke:#1d1d1b;stroke-miterlimit:10"></polyline><polyline points="760.95 212.68 752.37 217.14 745.5 226.75 737.95 231.55 735.21 236.01" style="fill:none;stroke:#1d1d1b;stroke-miterlimit:10"></polyline><line x1="752.37" y1="208.21" x2="752.37" y2="217.14" style="fill:none;stroke:#1d1d1b;stroke-miterlimit:10"></line><polygon points="756.14 207.53 755.11 210.62 758.55 209.93 756.14 207.53" style="fill:none;stroke:#1d1d1b;stroke-miterlimit:10"></polygon><line x1="762.37" y1="587.65" x2="762.37" y2="641.53" style="fill:none;stroke:#1d1d1b;stroke-miterlimit:10"></line><line x1="389.38" y1="562.79" x2="389.38" y2="643.6" style="fill:none;stroke:#1d1d1b;stroke-miterlimit:10"></line><line x1="1071.13" y1="411.52" x2="1075.27" y2="446.74" style="fill:none;stroke:#1d1d1b;stroke-miterlimit:10"></line><polyline points="289.91 653.96 294.52 565.09 293.87 646.34" style="fill:none;stroke:#1d1d1b;stroke-miterlimit:10"></polyline><g id="_5YLudY" data-name="5YLudY"><path d="M1140.8,91.39q0,24.71,0,49.41c0,.45-.06.59-.56.59q-74.43,0-148.87,0c-.5,0-.56-.14-.56-.59q0-24.71,0-49.41h49.24l.75,0,.75,0Z" style="fill:#d9341e"></path><path d="M1140.8,91.39h-99.23l-.75,0v-50h99.38c.48,0,.62.06.62.59Q1140.79,66.69,1140.8,91.39Z" style="fill:#fff"></path><path d="M1040.82,41.4v50l-.75,0H990.83q0-24.73,0-49.46c0-.45.09-.54.54-.54Zm-24.93,12.71h-.14c-.85,2.63-1.71,5.25-2.54,7.88a.67.67,0,0,1-.78.55c-1.87,0-3.75,0-5.62,0h-2.68c.06.25.23.3.35.39,2.1,1.53,4.2,3.07,6.32,4.58a.7.7,0,0,1,.3,1c-.48,1.35-.9,2.72-1.34,4.08s-.81,2.52-1.26,3.9l.52-.34c2.13-1.54,4.25-3.07,6.36-4.63a.63.63,0,0,1,.91,0c1.31,1,2.65,1.94,4,2.9.91.67,1.83,1.33,2.86,2.07-.08-.27-.11-.38-.14-.5-.82-2.53-1.63-5.06-2.47-7.58a.61.61,0,0,1,.25-.82c2.12-1.51,4.22-3,6.32-4.57.16-.12.3-.25.54-.46h-.75c-2.56,0-5.12,0-7.68,0a.64.64,0,0,1-.76-.57c-.14-.52-.33-1-.5-1.55Z" style="fill:#134496"></path><path d="M1015.89,54.11l2.05,6.31c.17.52.36,1,.5,1.55a.64.64,0,0,0,.76.57c2.56,0,5.12,0,7.68,0h.75c-.24.21-.38.34-.54.46-2.1,1.52-4.2,3.06-6.32,4.57a.61.61,0,0,0-.25.82c.84,2.52,1.65,5.05,2.47,7.58,0,.12.06.23.14.5-1-.74-2-1.4-2.86-2.07-1.33-1-2.67-1.91-4-2.9a.63.63,0,0,0-.91,0c-2.11,1.56-4.23,3.09-6.36,4.63l-.52.34c.45-1.38.86-2.64,1.26-3.9s.86-2.73,1.34-4.08a.7.7,0,0,0-.3-1c-2.12-1.51-4.22-3-6.32-4.58-.12-.09-.29-.14-.35-.39h2.68c1.87,0,3.75,0,5.62,0a.67.67,0,0,0,.78-.55c.83-2.63,1.69-5.25,2.54-7.88Z" style="fill:#fff"></path></g></svg>